PathFileType	4	(X/Y/Z)	/Users/itak/Documents/Research/Walk-IL/dataset/trc/00100_00007.trc
DataRate	CameraRate	NumFrames	NumMarkers	Units	OrigDataRate	OrigDataStartFrame	OrigNumFrames
100.000000	100.000000	4	53	mm	100.000000	198	528
Frame#	Time	RPSI			LPSI			L3			STRN			T10			C7			CLAV			RBAK			LBAK			LSHO			LUPA			LAEL			LAOL			LWTS			LWPS			LFRA			LIFD			LHPS			LHTS			RSHO			RUPA			RAEL			RAOL			RWTS			RWPS			RFRA			RIFD			RHTS			RHPS			RBHD			LFHD			RFHD			LBHD			LHIP			RHIP			RASI			LASI			LKNE			LTHI			LANK			LTIP			LTOE			LMT1			LMT5			LHEE			RKNE			RTHI			RANK			RTIP			RTOE			RMT1			RMT5			RHEE			
		X1	Y1	Z1	X2	Y2	Z2	X3	Y3	Z3	X4	Y4	Z4	X5	Y5	Z5	X6	Y6	Z6	X7	Y7	Z7	X8	Y8	Z8	X9	Y9	Z9	X10	Y10	Z10	X11	Y11	Z11	X12	Y12	Z12	X13	Y13	Z13	X14	Y14	Z14	X15	Y15	Z15	X16	Y16	Z16	X17	Y17	Z17	X18	Y18	Z18	X19	Y19	Z19	X20	Y20	Z20	X21	Y21	Z21	X22	Y22	Z22	X23	Y23	Z23	X24	Y24	Z24	X25	Y25	Z25	X26	Y26	Z26	X27	Y27	Z27	X28	Y28	Z28	X29	Y29	Z29	X30	Y30	Z30	X31	Y31	Z31	X32	Y32	Z32	X33	Y33	Z33	X34	Y34	Z34	X35	Y35	Z35	X36	Y36	Z36	X37	Y37	Z37	X38	Y38	Z38	X39	Y39	Z39	X40	Y40	Z40	X41	Y41	Z41	X42	Y42	Z42	X43	Y43	Z43	X44	Y44	Z44	X45	Y45	Z45	X46	Y46	Z46	X47	Y47	Z47	X48	Y48	Z48	X49	Y49	Z49	X50	Y50	Z50	X51	Y51	Z51	X52	Y52	Z52	X53	Y53	Z53	

199	1.98	-1483.0302734375	1112.067016601562	-263.2183227539062	-1472.008178710938	1127.09375	-397.6775207519531	-1482.258422851562	1160.415771484375	-330.906494140625	-1244.206665039062	1345.202392578125	-313.6378173828125	-1503.653564453125	1313.128173828125	-326.5674743652344	-1441.650512695312	1602.161254882812	-341.5945434570312	-1268.89794921875	1482.512573242188	-322.7193298339844	-1514.92822265625	1424.627807617188	-253.0421600341797	-1445.81787109375	1582.3056640625	-443.2327270507812	-1357.856323242188	1560.218872070312	-508.1034851074219	-1391.848022460938	1431.002563476562	-576.8738403320312	-1412.932983398438	1212.856079101562	-597.5776977539062	-1477.488647460938	1210.046630859375	-538.0634155273438	-1348.36572265625	944.0169677734375	-557.499267578125	-1433.789672851562	930.16064453125	-580.09326171875	-1413.69287109375	1095.776489257812	-601.682861328125	-1365.798828125	751.9105224609375	-530.2333374023438	-1416.04345703125	851.6947631835938	-580.9471435546875	-1347.266235351562	852.3067626953125	-567.398681640625	-1396.269287109375	1584.609619140625	-158.2722625732422	-1422.457641601562	1516.812377929688	-92.88274383544922	-1467.205688476562	1227.737060546875	-55.52299880981445	-1473.71435546875	1222.272338867188	-152.7671356201172	-1331.43017578125	980.4863891601562	-57.53083038330078	-1406.374389648438	966.3131103515625	-25.63787841796875	-1447.740356445312	1153.476318359375	-36.34675979614258	-1312.864868164062	784.3829956054688	-68.44161987304688	-1305.566528320312	870.6812744140625	-48.61005783081055	-1373.383544921875	866.2861938476562	-16.97828102111816	-1408.097290039062	1763.383911132812	-261.7966613769531	-1249.832885742188	1833.206787109375	-398.8553161621094	-1248.69189453125	1842.224609375	-269.2308044433594	-1416.740112304688	1757.686889648438	-397.1803283691406	-1369.251708984375	1047.238403320312	-507.1884765625	-1373.837768554688	1003.00341796875	-142.8356323242188	-1280.814819335938	1079.983154296875	-184.5162811279297	-1267.542114257812	1099.911865234375	-448.6039123535156	-1279.509521484375	541.5615844726562	-453.4801635742188	-1321.987548828125	682.8261108398438	-493.4980163574219	-1323.93408203125	31.99853706359863	-422.2225646972656	-1339.996826171875	283.3925476074219	-472.5785217285156	-1099.317016601562	39.99459457397461	-349.4407348632812	-1178.8876953125	44.46283721923828	-321.4869079589844	-1199.134765625	33.05987167358398	-439.6052551269531	-1396.16259765625	35.61460494995117	-364.0914001464844	-1344.476806640625	505.582763671875	-181.1227722167969	-1337.810424804688	789.817138671875	-159.0170288085938	-1767.101440429688	174.3029022216797	-163.1737670898438	-1443.084838867188	404.5435180664062	-163.2747497558594	-1599.740356445312	46.77125930786133	-230.490966796875	-1651.730712890625	70.85776519775391	-275.5243225097656	-1679.781494140625	73.132080078125	-159.0260772705078	-1800.66796875	228.4407653808594	-204.13671875	
200	1.99	-1474.79150390625	1112.131958007812	-263.5459899902344	-1463.786743164062	1127.261474609375	-398.0545654296875	-1473.810913085938	1160.705200195312	-331.3981628417969	-1236.119750976562	1345.972778320312	-313.9507751464844	-1496.010131835938	1313.819213867188	-328.1555480957031	-1433.35205078125	1602.713012695312	-343.0182189941406	-1260.708740234375	1483.289428710938	-322.9975280761719	-1507.10009765625	1425.066040039062	-254.9721221923828	-1436.860961914062	1582.939453125	-444.7323608398438	-1348.399658203125	1560.90283203125	-508.8920288085938	-1381.028076171875	1431.7060546875	-578.1707153320312	-1399.782836914062	1213.372314453125	-599.9442749023438	-1465.240600585938	1209.792114257812	-541.5155639648438	-1332.69580078125	945.3732299804688	-559.4699096679688	-1417.504028320312	930.4150390625	-583.4436645507812	-1399.141967773438	1096.314086914062	-604.3179931640625	-1347.619750976562	752.9765625	-533.3720703125	-1398.523071289062	852.2047119140625	-584.356689453125	-1330.093627929688	853.8042602539062	-569.7849731445312	-1389.273071289062	1585.100463867188	-159.3623657226562	-1415.845458984375	1517.184448242188	-94.1973876953125	-1460.466918945312	1227.937377929688	-57.70511627197266	-1465.707641601562	1222.452880859375	-155.0330200195312	-1324.039672851562	981.1082763671875	-57.79039764404297	-1399.438232421875	966.70751953125	-27.07954978942871	-1441.07861328125	1153.732666015625	-38.2828254699707	-1304.492919921875	785.09033203125	-67.75755310058594	-1297.898803710938	871.490234375	-48.08409118652344	-1366.165405273438	866.8612670898438	-17.67122840881348	-1399.987670898438	1763.745727539062	-262.53369140625	-1241.553588867188	1833.999145507812	-399.2117004394531	-1240.762817382812	1842.898071289062	-269.5783996582031	-1408.335327148438	1758.159545898438	-397.9512023925781	-1362.08935546875	1047.102294921875	-507.3886413574219	-1364.900756835938	1003.456909179688	-143.5920715332031	-1272.238037109375	1080.815551757812	-185.4051055908203	-1259.235229492188	1100.493774414062	-449.58056640625	-1275.752319335938	541.077392578125	-454.3687133789062	-1316.890380859375	682.795166015625	-494.1298828125	-1323.973266601562	32.01865768432617	-422.2297668457031	-1338.510498046875	283.4642639160156	-472.7178344726562	-1099.193481445312	39.89189910888672	-349.4277648925781	-1179.112548828125	44.25842666625977	-321.8529968261719	-1199.2060546875	32.93117523193359	-439.8795166015625	-1396.183837890625	35.63617324829102	-364.1012573242188	-1324.495971679688	506.7078857421875	-182.2868194580078	-1324.636962890625	790.7781372070312	-159.8885803222656	-1747.368774414062	176.9727325439453	-162.4861907958984	-1422.958251953125	405.7438354492188	-164.2152557373047	-1577.637817382812	48.46622085571289	-226.3491668701172	-1629.786743164062	72.23138427734375	-271.6886596679688	-1658.330078125	77.72785949707031	-155.3058013916016	-1781.69970703125	229.5152893066406	-204.6152191162109	
201	2	-1466.610717773438	1112.28515625	-263.8555908203125	-1455.692626953125	1127.421264648438	-398.41845703125	-1465.623291015625	1160.9501953125	-331.9334411621094	-1228.103637695312	1346.77734375	-314.2931213378906	-1488.294921875	1314.495727539062	-329.5748596191406	-1425.14111328125	1603.273071289062	-344.3360595703125	-1252.594604492188	1484.112915039062	-323.2644653320312	-1499.295776367188	1425.524658203125	-256.735595703125	-1428.05712890625	1583.583984375	-446.1136169433594	-1339.130249023438	1561.633178710938	-509.6078796386719	-1370.323120117188	1432.459350585938	-579.402099609375	-1386.392700195312	1213.947143554688	-602.2553100585938	-1452.78271484375	1209.520751953125	-544.971923828125	-1316.838134765625	946.761962890625	-561.3977661132812	-1400.997436523438	930.7659301757812	-586.8785400390625	-1384.327880859375	1096.92626953125	-606.9298706054688	-1329.364624023438	754.1092529296875	-536.5584106445312	-1380.813110351562	852.8399047851562	-587.8674926757812	-1312.770629882812	855.357666015625	-572.1465454101562	-1382.273071289062	1585.627685546875	-160.3835296630859	-1409.17822265625	1517.585571289062	-95.43603515625	-1453.701171875	1228.161254882812	-59.91381072998047	-1457.620483398438	1222.688110351562	-157.3134002685547	-1316.691284179688	981.7160034179688	-58.04276275634766	-1392.574829101562	967.099365234375	-28.60389137268066	-1434.416748046875	1154.008911132812	-40.26103973388672	-1296.2822265625	785.7694091796875	-67.12145233154297	-1290.315795898438	872.2731323242188	-47.55982208251953	-1359.07470703125	867.4154663085938	-18.45072364807129	-1391.896606445312	1764.1494140625	-263.2415771484375	-1233.256225585938	1834.748046875	-399.5129089355469	-1232.81884765625	1843.5419921875	-269.8803405761719	-1399.93896484375	1758.657592773438	-398.689208984375	-1355.110961914062	1046.849487304688	-507.5323486328125	-1355.861450195312	1004.071044921875	-144.2997131347656	-1263.700561523438	1081.749877929688	-186.3151397705078	-1251.13720703125	1101.048461914062	-450.5533447265625	-1272.091918945312	540.6177368164062	-455.0846862792969	-1311.873657226562	682.7446899414062	-494.5685119628906	-1324.02880859375	32.07259368896484	-422.187744140625	-1337.082153320312	283.5442810058594	-472.6984252929688	-1099.046142578125	39.76749801635742	-349.4028930664062	-1179.26611328125	44.06350708007812	-322.1676940917969	-1199.280883789062	32.8182258605957	-440.1107482910156	-1396.212524414062	35.68020248413086	-364.0636291503906	-1304.767333984375	508.2539672851562	-183.3893585205078	-1311.675415039062	791.9732666015625	-160.6664123535156	-1726.40283203125	178.5578460693359	-162.0306243896484	-1402.810913085938	407.1011962890625	-165.1318206787109	-1553.984252929688	49.88581085205078	-222.1525726318359	-1606.339599609375	72.84446716308594	-267.7472229003906	-1635.454345703125	81.71968078613281	-151.6215515136719	-1761.863159179688	229.1215209960938	-205.54296875	
202	2.01	-1458.484985351562	1112.50830078125	-264.163330078125	-1447.698608398438	1127.570068359375	-398.7816467285156	-1457.686767578125	1161.146606445312	-332.5336608886719	-1220.125122070312	1347.607543945312	-314.6781616210938	-1480.4873046875	1315.139038085938	-330.8612365722656	-1417.014282226562	1603.832885742188	-345.5536804199219	-1244.544067382812	1484.970092773438	-323.5371398925781	-1491.509765625	1425.99267578125	-258.3426513671875	-1419.404174804688	1584.228637695312	-447.3823547363281	-1330.046875	1562.404907226562	-510.2634887695312	-1359.749389648438	1433.260498046875	-580.5797729492188	-1372.810913085938	1214.586181640625	-604.4985961914062	-1440.127319335938	1209.2412109375	-548.385009765625	-1300.803955078125	948.1883544921875	-563.3003540039062	-1384.30419921875	931.220458984375	-590.3541870117188	-1369.302490234375	1097.6201171875	-609.500244140625	-1311.041870117188	755.3079223632812	-539.7550048828125	-1362.9697265625	853.6040649414062	-591.42236328125	-1295.327392578125	856.9669189453125	-574.4837036132812	-1375.24267578125	1586.17578125	-161.3438873291016	-1402.426025390625	1518.0048828125	-96.60170745849609	-1446.88818359375	1228.409423828125	-62.09904098510742	-1449.490112304688	1222.975341796875	-159.5542144775391	-1309.374145507812	982.2999267578125	-58.32373046875	-1385.746704101562	967.4844970703125	-30.18817329406738	-1427.731323242188	1154.303100585938	-42.24135971069336	-1288.238647460938	786.4124755859375	-66.63840484619141	-1282.812255859375	873.0149536132812	-47.1239013671875	-1352.073608398438	867.9378051757812	-19.34076309204102	-1383.83447265625	1764.603149414062	-263.9310607910156	-1224.933837890625	1835.441650390625	-399.7582702636719	-1224.8525390625	1844.140502929688	-270.1340637207031	-1391.561279296875	1759.19677734375	-399.401611328125	-1348.179443359375	1046.523315429688	-507.663818359375	-1346.644409179688	1004.832824707031	-144.9590911865234	-1255.209716796875	1082.773193359375	-187.2384185791016	-1243.232788085938	1101.535766601562	-451.510498046875	-1268.493530273438	540.1781005859375	-455.6334228515625	-1306.935302734375	682.673828125	-494.8247375488281	-1324.097412109375	32.16241455078125	-422.091064453125	-1335.695922851562	283.6304016113281	-472.5391845703125	-1098.864990234375	39.61453628540039	-349.3670349121094	-1179.30810546875	43.89199829101562	-322.4165344238281	-1199.349609375	32.72172546386719	-440.2981567382812	-1396.248901367188	35.75524520874023	-363.9789428710938	-1285.331176757812	510.1937561035156	-184.4235382080078	-1298.962036132812	793.3845825195312	-161.3382110595703	-1704.358520507812	179.0023803710938	-161.7767333984375	-1382.65673828125	408.56884765625	-166.0213928222656	-1528.961547851562	50.97928237915039	-218.0180053710938	-1581.563598632812	72.74416351318359	-263.8331604003906	-1611.335205078125	84.98455810546875	-148.1022491455078	-1741.160888671875	227.30419921875	-206.7920837402344	
